<svg xmlns="http://www.w3.org/2000/svg" viewBox="0 0 32 32" role="img" aria-label="Portfolio">
  <defs>
    <linearGradient id="f-front" x1="8" y1="11" x2="26" y2="27" gradientUnits="userSpaceOnUse">
      <stop offset="0%" stop-color="#e8cfc8"/>
      <stop offset="100%" stop-color="#f3ecda"/>
    </linearGradient>
  </defs>
  <rect width="32" height="32" fill="#f3ecda"/>
  <path fill="#aab4c8" stroke="#524c44" stroke-width="1.2" stroke-linejoin="round"
    d="M4 10V8.5Q4 7 5.5 7H11Q12.5 7 12.5 8.5V10H26Q27.5 10 27.5 11.5V24Q27.5 25.5 26 25.5H6Q4.5 25.5 4.5 24V11.5Q4.5 10 6 10Z"/>
  <path fill="url(#f-front)" stroke="#524c44" stroke-width="1.2" stroke-linejoin="round"
    d="M6.5 12.5H26.5Q28 12.5 28 14V24.5Q28 26 26.5 26H7.5Q6 26 6 24.5V14Q6 12.5 7.5 12.5Z"/>
  <path d="M23.5 23.5L26.5 26.5L23.5 26.5Z" fill="#ebe3cf" stroke="#524c44" stroke-width="0.7"/>
  <text x="24" y="9.5" text-anchor="middle" font-size="5" fill="#c49a9f"></text>
</svg>
